<svg width="128" height="128" viewBox="0 0 128 128" fill="none" xmlns="http://www.w3.org/2000/svg">
<path d="M105.012 22.9878C100.136 18.1118 93.5231 15.3726 86.6274 15.3726C79.7317 15.3726 73.1184 18.1118 68.2424 22.9878L58.3429 32.8872C57.971 33.2586 57.6759 33.6996 57.4745 34.185C57.2732 34.6705 57.1694 35.1908 57.1692 35.7164C57.169 36.242 57.2724 36.7624 57.4734 37.248C57.6745 37.7336 57.9692 38.1749 58.3409 38.5465C58.7125 38.9181 59.1537 39.2129 59.6393 39.4139C60.1249 39.615 60.6454 39.7183 61.1709 39.7181C61.6965 39.718 62.2169 39.6142 62.7023 39.4128C63.1878 39.2114 63.6288 38.9163 64.0001 38.5444L73.8996 28.645C75.571 26.9736 77.5552 25.6477 79.739 24.7431C81.9229 23.8385 84.2635 23.3729 86.6272 23.3729C88.9909 23.3729 91.3315 23.8384 93.5154 24.743C95.6992 25.6475 97.6835 26.9733 99.3549 28.6448C101.026 30.3162 102.352 32.3004 103.257 34.4842C104.161 36.668 104.627 39.0086 104.627 41.3724C104.627 43.7361 104.161 46.0767 103.257 48.2605C102.352 50.4444 101.027 52.4286 99.3551 54.1001L85.2135 68.2426C81.8352 71.6134 77.2578 73.5064 72.4855 73.5064C67.7132 73.5064 63.1358 71.6134 59.7575 68.2426C59.0071 67.4934 57.9899 67.0727 56.9295 67.0731C55.8691 67.0735 54.8522 67.4949 54.1023 68.2447C53.3525 68.9945 52.9311 70.0114 52.9307 71.0719C52.9303 72.1323 53.351 73.1495 54.1003 73.8999C58.9803 78.7683 65.5921 81.5024 72.4853 81.5024C79.3785 81.5024 85.9902 78.7683 90.8703 73.8999L105.012 59.7573C109.888 54.8812 112.627 48.2681 112.627 41.3725C112.627 34.477 109.888 27.8639 105.012 22.9878L105.012 22.9878Z" fill="black"/>
<path d="M63.9999 89.4556L54.1005 99.355C52.4291 101.026 50.4448 102.352 48.261 103.257C46.0772 104.161 43.7366 104.627 41.3729 104.627C39.0091 104.627 36.6685 104.162 34.4847 103.257C32.3009 102.352 30.3166 101.027 28.6452 99.3552C26.9737 97.6838 25.6479 95.6996 24.7433 93.5157C23.8387 91.3319 23.3731 88.9914 23.3731 86.6276C23.373 84.2639 23.8386 81.9233 24.7431 79.7394C25.6477 77.5556 26.9735 75.5713 28.6449 73.8999L42.7865 59.7573C46.1647 56.3863 50.7422 54.493 55.5146 54.493C60.287 54.493 64.8644 56.3863 68.2426 59.7573C68.6139 60.1292 69.055 60.4243 69.5404 60.6257C70.0259 60.8271 70.5462 60.9308 71.0718 60.931C71.5974 60.9312 72.1178 60.8279 72.6034 60.6268C73.089 60.4258 73.5302 60.131 73.9019 59.7594C74.2735 59.3878 74.5683 58.9465 74.7693 58.4609C74.9703 57.9753 75.0737 57.4549 75.0735 56.9293C75.0733 56.4037 74.9696 55.8834 74.7682 55.3979C74.5668 54.9125 74.2717 54.4715 73.8998 54.1001C69.0198 49.2317 62.408 46.4976 55.5148 46.4976C48.6216 46.4976 42.0098 49.2317 37.1298 54.1001L22.9877 68.2427C18.1167 73.1197 15.3816 79.7314 15.3837 86.6243C15.3859 93.5172 18.1251 100.127 22.9991 105.001C27.8732 109.875 34.4832 112.614 41.3761 112.616C48.2691 112.618 54.8807 109.883 59.7577 105.012L69.6572 95.1128C70.4064 94.3624 70.8271 93.3452 70.8267 92.2848C70.8263 91.2243 70.4049 90.2075 69.6551 89.4576C68.9052 88.7078 67.8884 88.2864 66.8279 88.286C65.7675 88.2856 64.7503 88.7063 63.9999 89.4556H63.9999Z" fill="black"/>
</svg>
