<svg height="480pt" viewBox="0 0 480 480" width="480pt" xmlns="http://www.w3.org/2000/svg"><path d="m472 240c0 128.128906-103.871094 232-232 232s-232-103.871094-232-232 103.871094-232 232-232 232 103.871094 232 232zm0 0" fill="#ccdce5"/><path d="m432 216c-.023438-12.269531-7.074219-23.4375-18.144531-28.726562 4.46875-11.285157 2.085937-24.128907-6.132813-33.0625-8.214844-8.929688-20.820312-12.371094-32.433594-8.859376-2.910156-13.5-14.175781-23.59375-27.914062-25.007812 6.746094-10.441406 6.683594-23.882812-.15625-34.261719-6.84375-10.382812-19.171875-15.738281-31.425781-13.65625-7.574219-13.910156-24.304688-20.027343-39.066407-14.28125-5.273437-11.082031-16.453124-18.144531-28.726562-18.144531s-23.453125 7.0625-28.726562 18.144531c-14.761719-5.746093-31.492188.371094-39.066407 14.28125-12.152343-1.734375-24.214843 3.703125-30.972656 13.953125s-6.992187 23.476563-.609375 33.964844c-13.738281 1.414062-25.003906 11.507812-27.914062 25.007812-2.824219-.855468-5.757813-1.308593-8.710938-1.351562-10.523438-.070312-20.398438 5.074219-26.378906 13.738281-5.976563 8.660157-7.277344 19.71875-3.476563 29.535157-8.378906 4-14.597656 11.453124-17.03125 20.414062-2.433593 8.960938-.839843 18.535156 4.367188 26.222656-12.226563 4.203125-20.695313 15.382813-21.425781 28.289063-.730469 12.90625 6.417968 24.972656 18.089843 30.527343-4.46875 11.285157-2.085937 24.128907 6.132813 33.0625 8.214844 8.929688 20.820312 12.371094 32.433594 8.859376 2.910156 13.5 14.175781 23.59375 27.914062 25.007812-6.746094 10.441406-6.683594 23.882812.15625 34.261719 6.84375 10.382812 19.171875 15.738281 31.425781 13.65625 7.574219 13.910156 24.304688 20.027343 39.066407 14.28125 5.273437 11.082031 16.453124 18.144531 28.726562 18.144531s23.453125-7.0625 28.726562-18.144531c14.761719 5.746093 31.492188-.371094 39.066407-14.28125 12.152343 1.734375 24.214843-3.703125 30.972656-13.953125s6.992187-23.476563.609375-33.964844c13.738281-1.414062 25.003906-11.507812 27.914062-25.007812 2.824219.855468 5.757813 1.308593 8.710938 1.351562 10.523438.070312 20.398438-5.074219 26.378906-13.738281 5.976563-8.660157 7.277344-19.71875 3.476563-29.535157 8.378906-4 14.597656-11.453124 17.03125-20.414062 2.433593-8.960938.839843-18.535156-4.367188-26.222656 12.832031-4.441406 21.449219-16.511719 21.480469-30.089844zm0 0" fill="#fde700"/><path d="m380.71875 136.160156c-4.246094-9.820312-12.277344-17.507812-22.269531-21.320312 1.023437-3.523438 1.546875-7.171875 1.550781-10.839844-.027344-22.082031-17.917969-39.972656-40-40h-.167969c-9.113281-12.210938-24.421875-18.121094-39.375-15.199219-7.460937-10.519531-19.558593-16.769531-32.457031-16.769531s-24.996094 6.25-32.457031 16.769531c-14.953125-2.917969-30.257813 2.988281-39.375 15.199219h-.167969c-22.082031.027344-39.972656 17.917969-40 40 .003906 3.667969.527344 7.316406 1.550781 10.839844-9.992187 3.8125-18.023437 11.5-22.269531 21.320312-11.152344-.980468-22.199219 2.785156-30.4375 10.363282-8.234375 7.582031-12.898438 18.28125-12.84375 29.476562.015625 2.535156.28125 5.0625.800781 7.542969-14.839843 10.539062-20.664062 29.78125-14.160156 46.777343-11.257813 7.066407-18.242187 19.289063-18.609375 32.574219-.371094 13.289063 5.921875 25.878907 16.769531 33.5625-.519531 2.480469-.785156 5.007813-.800781 7.542969-.042969 11.191406 4.621094 21.882812 12.855469 29.464844 8.234375 7.578125 19.277343 11.34375 30.425781 10.375 4.246094 9.820312 12.277344 17.507812 22.269531 21.320312-1.023437 3.523438-1.546875 7.171875-1.550781 10.839844.027344 22.082031 17.917969 39.972656 40 40h.167969c9.109375 12.21875 24.417969 18.128906 39.375 15.199219 7.460937 10.519531 19.558593 16.769531 32.457031 16.769531s24.996094-6.25 32.457031-16.769531c14.957031 2.933593 30.269531-2.976563 39.375-15.199219h.167969c22.082031-.027344 39.972656-17.917969 40-40-.003906-3.667969-.527344-7.316406-1.550781-10.839844 9.992187-3.8125 18.023437-11.5 22.269531-21.320312 11.148438.96875 22.191406-2.796875 30.425781-10.375 8.234375-7.582032 12.898438-18.273438 12.855469-29.464844-.015625-2.535156-.28125-5.0625-.800781-7.542969 14.839843-10.539062 20.664062-29.78125 14.160156-46.777343 11.261719-7.0625 18.25-19.28125 18.625-32.566407.378906-13.285156-5.910156-25.882812-16.753906-33.570312.507812-2.480469.765625-5.007813.769531-7.542969.0625-11.199219-4.59375-21.902344-12.832031-29.488281-8.242188-7.582031-19.292969-11.339844-30.449219-10.351563zm27.28125 39.839844c-.015625 2.890625-.558594 5.753906-1.601562 8.449219-1.464844 3.875.273437 8.226562 4 10.03125 8.765624 4.140625 14.144531 13.1875 13.59375 22.863281-.546876 9.679688-6.910157 18.058594-16.089844 21.183594-2.332032.820312-4.15625 2.671875-4.941406 5.019531-.78125 2.347656-.433594 4.925781.941406 6.980469 3.925781 5.765625 5.132812 12.957031 3.304687 19.683594-1.828125 6.730468-6.507812 12.320312-12.808593 15.308593-3.726563 1.804688-5.464844 6.15625-4 10.03125 3.402343 8.457031 1.636718 18.117188-4.535157 24.824219s-15.648437 9.265625-24.359375 6.578125c-2.132812-.605469-4.417968-.296875-6.316406.847656-1.894531 1.144531-3.234375 3.023438-3.691406 5.191407-2.175782 10.121093-10.636719 17.683593-20.9375 18.710937-2.710938.289063-5.089844 1.941406-6.308594 4.386719-1.21875 2.441406-1.109375 5.335937.292969 7.679687 2.253906 3.679688 3.449219 7.914063 3.457031 12.230469 0 13.253906-10.746094 24-24 24-.757812-.023438-1.515625-.101562-2.265625-.230469l-.917969-.128906c-3.230468-.402344-6.386718 1.171875-8 4-5.621094 10.480469-18.191406 15.101563-29.265625 10.757813-3.875-1.464844-8.226562.273437-10.03125 4-3.933593 8.328124-12.3125 13.636718-21.519531 13.636718s-17.585938-5.308594-21.519531-13.636718c-1.804688-3.726563-6.15625-5.464844-10.03125-4-11.0625 4.34375-23.621094-.269532-29.25-10.734376-1.609375-2.828124-4.769531-4.40625-8-4l-.917969.128907c-.753906.121093-1.515625.191406-2.28125.207031-13.253906 0-24-10.746094-24-24 .015625-4.320312 1.222656-8.554688 3.488281-12.230469 1.402344-2.34375 1.511719-5.238281.292969-7.679687-1.214844-2.445313-3.59375-4.097656-6.308594-4.386719-10.300781-1.027344-18.761718-8.589844-20.9375-18.710937-.457031-2.167969-1.796875-4.046876-3.691406-5.191407-1.898438-1.144531-4.183594-1.453125-6.316406-.847656-8.699219 2.613281-18.132813.03125-24.289063-6.648437-6.15625-6.683594-7.957031-16.292969-4.636719-24.753907 1.464844-3.875-.273437-8.226562-4-10.03125-8.765624-4.140625-14.144531-13.1875-13.59375-22.863281.546876-9.679688 6.910157-18.058594 16.089844-21.183594 2.332032-.820312 4.15625-2.671875 4.941406-5.019531.78125-2.347656.433594-4.925781-.941406-6.980469-3.925781-5.765625-5.132812-12.957031-3.304687-19.683594 1.828125-6.730468 6.507812-12.320312 12.808593-15.308593 3.726563-1.804688 5.464844-6.15625 4-10.03125-3.402343-8.457031-1.636718-18.117188 4.535157-24.824219s15.648437-9.265625 24.359375-6.578125c2.132812.605469 4.417968.296875 6.316406-.847656 1.894531-1.144531 3.234375-3.023438 3.691406-5.191407 2.175782-10.121093 10.636719-17.683593 20.9375-18.710937 2.710938-.289063 5.089844-1.941406 6.308594-4.386719 1.21875-2.441406 1.109375-5.335937-.292969-7.679687-2.253906-3.679688-3.449219-7.914063-3.457031-12.230469 0-13.253906 10.746094-24 24-24 .757812.023438 1.515625.101562 2.265625.230469l.917969.128906c3.234375.421875 6.398437-1.160156 8-4 5.621094-10.484375 18.191406-15.105469 29.265625-10.757813 3.875 1.464844 8.226562-.273437 10.03125-4 3.933593-8.328124 12.3125-13.636718 21.519531-13.636718s17.585938 5.308594 21.519531 13.636718c1.804688 3.726563 6.15625 5.464844 10.03125 4 11.0625-4.347656 23.625.265626 29.25 10.734376 1.601563 2.839843 4.765625 4.421874 8 4l.917969-.128907c.753906-.121093 1.515625-.191406 2.28125-.207031 13.253906 0 24 10.746094 24 24-.015625 4.320312-1.222656 8.554688-3.488281 12.230469-1.402344 2.34375-1.511719 5.238281-.292969 7.679687 1.214844 2.445313 3.59375 4.097656 6.308594 4.386719 10.300781 1.027344 18.761718 8.589844 20.9375 18.710937.457031 2.167969 1.796875 4.046876 3.691406 5.191407 1.898438 1.144531 4.183594 1.453125 6.316406.847656 7.222656-2.234375 15.082032-.867187 21.125 3.679687 6.046875 4.542969 9.542969 11.710938 9.402344 19.273438zm0 0"/><path d="m112 176v16c13.253906 0 24 10.746094 24 24h16c-.027344-22.082031-17.917969-39.972656-40-40zm0 0"/><path d="m215.199219 104.800781-15.6875 3.136719c2.605469 12.996094-5.824219 25.644531-18.824219 28.246094l3.136719 15.679687c21.644531-4.355469 35.679687-25.410156 31.375-47.0625zm0 0"/><path d="m368 224v-16c-13.253906 0-24-10.746094-24-24h-16c.027344 22.082031 17.917969 39.972656 40 40zm0 0"/><path d="m216 192h16v16h-16zm0 0"/><path d="m176 264h16v16h-16zm0 0"/><path d="m280 128h16v16h-16zm0 0"/><path d="m240 80h16v16h-16zm0 0"/><path d="m185.601562 328.160156-3.203124 15.679688c13 2.601562 21.429687 15.25 18.824218 28.25l15.6875 3.132812c4.335938-21.636718-9.675781-42.699218-31.308594-47.0625zm0 0"/><path d="m317.089844 290.34375 11.308594 11.3125c9.375-9.375 24.574218-9.375 33.945312 0l11.3125-11.3125c-15.632812-15.59375-40.9375-15.59375-56.566406 0zm0 0"/><path d="m120.96875 250.34375c-15.585938 15.636719-15.585938 40.933594 0 56.566406l11.3125-11.308594c-9.355469-9.382812-9.355469-24.5625 0-33.945312zm0 0"/><path d="m264 296h16v16h-16zm0 0"/><path d="m264 368h16v16h-16zm0 0"/><path d="m272 232h-32c-4.417969 0-8 3.582031-8 8v32h16v-24h24zm0 0"/><path d="m240 0c-132.546875 0-240 107.453125-240 240s107.453125 240 240 240 240-107.453125 240-240c-.148438-132.484375-107.515625-239.851562-240-240zm0 464c-123.710938 0-224-100.289062-224-224s100.289062-224 224-224 224 100.289062 224 224c-.140625 123.652344-100.347656 223.859375-224 224zm0 0"/></svg>